# xmcd
# 
# Track frame offsets:
#     150
#     19365
#     35613
#     52677
#     73526
#     92482
#     112132
#     129488
#     149138
#     165437
#     182970
#     198503
#     218885
#     238150
#     253300
#     270387
#     290209
# 
# Disc length: 4370
# 
# Revision: 1
# Processed by: cddbd v1.5.2PL0 Copyright (c) Steve Scherf et al.
# Submitted via: fre:ac v1.0.17
# 
DISCID=0e111011
DTITLE=衛蘭 - 最愛精選
DYEAR=2010
DGENRE=Pop
TTITLE0=你的女人
TTITLE1=愛在天地動搖時
TTITLE2=2012
TTITLE3=積雪
TTITLE4=溫差
TTITLE5=唯愛人間
TTITLE6=男人信什麼
TTITLE7=Make it real
TTITLE8=Never Know
TTITLE9=為你鍾情
TTITLE10=越夜越有機
TTITLE11=戀人も濡れる街角
TTITLE12=等
TTITLE13=童夢
TTITLE14=十個他不如你一個
TTITLE15=你知道我在等你們分手嗎
TTITLE16=The Christmas Tunes By
EXTD=
EXTT0=
EXTT1=
EXTT2=
EXTT3=
EXTT4=
EXTT5=
EXTT6=
EXTT7=
EXTT8=
EXTT9=
EXTT10=
EXTT11=
EXTT12=
EXTT13=
EXTT14=
EXTT15=
EXTT16=
PLAYORDER=
